<?xml version="1.0" encoding="utf-8"?>
<!-- Generator: Adobe Illustrator 21.0.0, SVG Export Plug-In . SVG Version: 6.00 Build 0)  -->
<svg version="1.1" id="Layer_1" xmlns="http://www.w3.org/2000/svg" xmlns:xlink="http://www.w3.org/1999/xlink" x="0px" y="0px"
	 viewBox="0 0 126.5 25.3" style="enable-background:new 0 0 126.5 25.3;" xml:space="preserve">
<style type="text/css">
	.st0{fill:#FFFFFF;}
</style>
<g>
	<g>
		<g>
			<g>
				<rect x="29.2" y="4.2" class="st0" width="0.5" height="16.4"/>
				<rect x="28.9" y="3.9" class="st0" width="1" height="16.9"/>
			</g>
		</g>
	</g>
</g>
<g>
	<g>
		<path class="st0" d="M2.1,17.9c0.6,0.4,2,1,3.6,1c2.8,0,3.7-1.8,3.6-3.1c0-2.2-2.1-3.2-4.1-3.2H4v-1.6h1.2c1.6,0,3.6-0.8,3.6-2.7
			c0-1.3-0.8-2.4-2.8-2.4c-1.3,0-2.5,0.6-3.2,1.1L2.1,5.2C3,4.6,4.6,4,6.4,4C9.5,4,11,5.9,11,7.8c0,1.7-1,3.1-3,3.8v0
			c2,0.4,3.6,1.9,3.6,4.1c0,2.6-2,4.8-5.9,4.8c-1.8,0-3.4-0.6-4.2-1.1L2.1,17.9z"/>
		<path class="st0" d="M14.3,6.9C14.2,7,13.9,7,13.5,7c-0.8,0-1.4-0.6-1.4-1.4c0-0.9,0.6-1.5,1.5-1.5c0.3,0,0.6,0.1,0.7,0.1
			l-0.1,0.4c-0.1-0.1-0.3-0.1-0.6-0.1c-0.6,0-1,0.5-1,1.1c0,0.6,0.4,1.1,1,1.1c0.3,0,0.5-0.1,0.6-0.1L14.3,6.9z"/>
		<path class="st0" d="M17.2,6.2c0,0.3,0,0.6,0,0.8h-0.5l0-0.5h0c-0.1,0.2-0.4,0.5-0.9,0.5c-0.4,0-1-0.2-1-1.2V4.2h0.5v1.6
			c0,0.5,0.2,0.9,0.6,0.9c0.3,0,0.6-0.2,0.7-0.5c0-0.1,0-0.2,0-0.3V4.2h0.5V6.2z"/>
		<path class="st0" d="M18.1,2.9h0.5v1.8h0c0.2-0.3,0.5-0.5,1-0.5c0.7,0,1.2,0.6,1.2,1.4c0,1-0.6,1.5-1.3,1.5
			c-0.4,0-0.7-0.2-0.9-0.5h0l0,0.5h-0.4c0-0.2,0-0.5,0-0.7V2.9z M18.6,5.9c0,0.1,0,0.1,0,0.2c0.1,0.4,0.4,0.6,0.8,0.6
			c0.5,0,0.9-0.4,0.9-1.1c0-0.6-0.3-1.1-0.8-1.1c-0.3,0-0.7,0.2-0.8,0.6c0,0.1,0,0.1,0,0.2V5.9z"/>
		<path class="st0" d="M23.4,6.3c0,0.2,0,0.5,0,0.7H23l0-0.4h0c-0.2,0.2-0.5,0.4-0.9,0.4c-0.6,0-0.9-0.4-0.9-0.8
			c0-0.7,0.6-1.1,1.7-1V5.1c0-0.2-0.1-0.7-0.6-0.7c-0.3,0-0.5,0.1-0.7,0.2l-0.1-0.3c0.2-0.1,0.6-0.2,0.9-0.2c0.9,0,1.1,0.6,1.1,1.1
			V6.3z M22.9,5.6c-0.6,0-1.2,0.1-1.2,0.6c0,0.3,0.2,0.5,0.5,0.5c0.4,0,0.6-0.2,0.7-0.5c0-0.1,0-0.1,0-0.2V5.6z"/>
	</g>
</g>
<g>
	<path class="st0" d="M42.9,10.7c-0.3,0.1-0.9,0.3-1.8,0.3c-2.7,0-3.8-1.7-3.8-3.6c0-2.5,1.8-3.8,4-3.8c0.8,0,1.5,0.2,1.8,0.3
		l-0.4,1.5c-0.3-0.1-0.8-0.3-1.3-0.3c-1.1,0-2,0.6-2,2.1c0,1.3,0.8,2.1,2.1,2.1c0.5,0,1-0.1,1.3-0.2L42.9,10.7z"/>
	<path class="st0" d="M45.9,11c-1.6,0-2.8-1-2.8-2.7c0-1.7,1.1-2.8,2.9-2.8c1.6,0,2.7,1.1,2.7,2.7C48.7,10.1,47.4,11,45.9,11
		L45.9,11z M46,9.7c0.5,0,0.8-0.5,0.8-1.4c0-0.7-0.2-1.4-0.8-1.4c-0.6,0-0.8,0.7-0.8,1.4C45.1,9.1,45.4,9.7,46,9.7L46,9.7z"/>
	<path class="st0" d="M49.4,7.4c0-0.8,0-1.3,0-1.8H51l0.1,0.9h0c0.3-0.8,0.9-1.1,1.4-1.1c0.2,0,0.2,0,0.4,0v1.8
		c-0.1,0-0.3-0.1-0.5-0.1c-0.6,0-0.9,0.2-1,0.7c0,0.1,0,0.2,0,0.3v2.6h-1.9V7.4z"/>
	<path class="st0" d="M53.7,7.5c0-0.7,0-1.3,0-1.8h1.7l0.1,0.7h0c0.4-0.5,1-0.8,1.7-0.8c1.1,0,2.1,1,2.1,2.7c0,1.9-1.2,2.8-2.4,2.8
		c-0.6,0-1-0.2-1.2-0.5h0V13h-1.9V7.5z M55.6,8.6c0,0.1,0,0.2,0,0.3c0.1,0.3,0.4,0.6,0.7,0.6c0.6,0,0.9-0.5,0.9-1.2
		c0-0.7-0.3-1.3-0.9-1.3c-0.4,0-0.7,0.3-0.8,0.7c0,0.1,0,0.2,0,0.2V8.6z"/>
	<path class="st0" d="M62.5,11c-1.6,0-2.8-1-2.8-2.7c0-1.7,1.1-2.8,2.9-2.8c1.6,0,2.7,1.1,2.7,2.7C65.3,10.1,64,11,62.5,11L62.5,11z
		 M62.5,9.7c0.5,0,0.8-0.5,0.8-1.4c0-0.7-0.2-1.4-0.8-1.4c-0.6,0-0.8,0.7-0.8,1.4C61.7,9.1,62,9.7,62.5,9.7L62.5,9.7z"/>
	<path class="st0" d="M66,7.4c0-0.8,0-1.3,0-1.8h1.6l0.1,0.9h0c0.3-0.8,0.9-1.1,1.4-1.1c0.2,0,0.2,0,0.4,0v1.8
		c-0.1,0-0.3-0.1-0.5-0.1c-0.6,0-0.9,0.2-1,0.7c0,0.1,0,0.2,0,0.3v2.6H66V7.4z"/>
	<path class="st0" d="M74.8,9.6c0,0.5,0,1,0.1,1.3h-1.7l-0.1-0.5h0c-0.4,0.4-0.9,0.6-1.4,0.6c-1.1,0-1.7-0.8-1.7-1.6
		c0-1.4,1.3-2,3-2v0c0-0.2-0.2-0.4-0.9-0.4c-0.6,0-1.1,0.2-1.5,0.4L70.2,6c0.3-0.2,1.1-0.5,2.2-0.5c1.8,0,2.4,1,2.4,2.3V9.6z
		 M72.9,8.5c-0.8,0-1.2,0.2-1.2,0.7c0,0.3,0.2,0.5,0.5,0.5c0.3,0,0.6-0.2,0.7-0.5c0-0.1,0-0.2,0-0.3V8.5z"/>
	<path class="st0" d="M77.8,4.2v1.5h1.1v1.4h-1.1v1.5c0,0.6,0.1,0.9,0.6,0.9c0.2,0,0.3,0,0.5,0v1.5c-0.2,0.1-0.6,0.1-1.1,0.1
		c-0.6,0-1-0.2-1.3-0.5c-0.3-0.3-0.5-0.8-0.5-1.6V7.1h-0.6V5.7h0.6v-1L77.8,4.2z"/>
	<path class="st0" d="M81,9c0.1,0.4,0.7,0.6,1.3,0.6c0.5,0,1-0.1,1.4-0.2l0.2,1.3c-0.6,0.2-1.3,0.3-2,0.3c-1.8,0-2.9-1-2.9-2.7
		c0-1.2,0.8-2.8,2.7-2.8c1.7,0,2.4,1.2,2.4,2.7c0,0.3,0,0.6-0.1,0.7H81z M82.5,7.7c0-0.3-0.1-0.8-0.7-0.8c-0.6,0-0.8,0.5-0.8,0.8
		H82.5z"/>
	<path class="st0" d="M86.9,3.8c0.6-0.1,1.4-0.2,2.3-0.2c1.4,0,2.2,0.2,2.9,0.7c0.8,0.5,1.3,1.4,1.3,2.7c0,1.5-0.6,2.4-1.2,2.9
		c-0.8,0.6-2,0.9-3.4,0.9c-0.9,0-1.5-0.1-1.9-0.1V3.8z M88.8,9.5c0.1,0,0.3,0,0.4,0c1.2,0,2.2-0.7,2.2-2.3c0-1.4-0.8-2.1-2-2.1
		c-0.3,0-0.5,0-0.6,0V9.5z"/>
	<path class="st0" d="M95.7,9c0.1,0.4,0.7,0.6,1.3,0.6c0.5,0,1-0.1,1.4-0.2l0.2,1.3c-0.6,0.2-1.3,0.3-2,0.3c-1.8,0-2.9-1-2.9-2.7
		c0-1.2,0.8-2.8,2.7-2.8c1.7,0,2.4,1.2,2.4,2.7C99,8.5,99,8.8,99,9H95.7z M97.3,7.7c0-0.3-0.1-0.8-0.7-0.8c-0.6,0-0.8,0.5-0.8,0.8
		H97.3z"/>
	<path class="st0" d="M99.7,9.3c0.3,0.2,1,0.4,1.4,0.4c0.4,0,0.6-0.1,0.6-0.3c0-0.2-0.1-0.3-0.7-0.4c-1.2-0.4-1.5-1-1.5-1.6
		c0-1,0.9-1.8,2.3-1.8c0.6,0,1.2,0.1,1.5,0.3L103,7.1c-0.2-0.1-0.7-0.3-1.2-0.3c-0.3,0-0.5,0.1-0.5,0.3c0,0.2,0.2,0.3,0.8,0.5
		c1,0.3,1.4,0.9,1.4,1.6c0,1-0.8,1.7-2.4,1.7c-0.7,0-1.4-0.2-1.8-0.4L99.7,9.3z"/>
	<path class="st0" d="M105.2,5.1c-0.6,0-1-0.4-1-0.9c0-0.5,0.4-0.9,1-0.9s1,0.4,1,0.9C106.2,4.7,105.8,5.1,105.2,5.1L105.2,5.1z
		 M104.2,10.9V5.7h1.9v5.2H104.2z"/>
	<path class="st0" d="M112.3,10.1c0,0.9-0.2,1.8-0.8,2.3c-0.6,0.5-1.4,0.6-2.2,0.6c-0.7,0-1.5-0.1-1.9-0.4l0.4-1.4
		c0.3,0.2,0.9,0.4,1.5,0.4c0.7,0,1.2-0.4,1.2-1.2v-0.2h0c-0.3,0.4-0.8,0.6-1.3,0.6c-1.3,0-2.2-1-2.2-2.5c0-1.6,1.1-2.7,2.4-2.7
		c0.6,0,1.1,0.2,1.3,0.7h0l0.1-0.6h1.6c0,0.3,0,0.8,0,1.6V10.1z M110.4,7.8c0-0.1,0-0.2,0-0.2C110.3,7.2,110,7,109.7,7
		c-0.5,0-0.8,0.4-0.8,1.3c0,0.7,0.3,1.2,0.8,1.2c0.4,0,0.6-0.2,0.7-0.5c0-0.1,0-0.3,0-0.4V7.8z"/>
	<path class="st0" d="M113.2,7.5c0-0.7,0-1.3,0-1.8h1.7l0.1,0.7h0c0.2-0.3,0.7-0.8,1.6-0.8c1.2,0,1.9,0.8,1.9,2.3v3.1h-1.9V8
		c0-0.6-0.2-1-0.7-1c-0.4,0-0.5,0.3-0.6,0.5c0,0.1-0.1,0.2-0.1,0.4v3h-1.9V7.5z"/>
	<path class="st0" d="M37.5,13.8c0.4-0.1,1.4-0.2,2.3-0.2c1,0,1.6,0.1,2.2,0.4c0.6,0.3,1,0.8,1,1.5c0,0.6-0.3,1.2-1.2,1.5v0
		c0.9,0.2,1.4,0.9,1.4,1.7c0,0.7-0.3,1.2-0.8,1.6C41.8,20.7,41,21,39.4,21c-0.9,0-1.5-0.1-1.9-0.1V13.8z M39.4,16.5h0.4
		c0.8,0,1.2-0.3,1.2-0.7c0-0.4-0.3-0.7-1-0.7c-0.3,0-0.5,0-0.6,0V16.5z M39.4,19.6c0.1,0,0.3,0,0.6,0c0.6,0,1.2-0.3,1.2-0.9
		c0-0.6-0.6-0.8-1.3-0.8h-0.5V19.6z"/>
	<path class="st0" d="M44.1,17.4c0-0.8,0-1.3,0-1.8h1.6l0.1,0.9h0c0.3-0.8,0.9-1.1,1.4-1.1c0.2,0,0.2,0,0.4,0v1.8
		c-0.1,0-0.3-0.1-0.5-0.1c-0.6,0-0.9,0.2-1,0.7c0,0.1,0,0.2,0,0.3v2.6h-1.9V17.4z"/>
	<path class="st0" d="M52.7,19.6c0,0.5,0,1,0.1,1.3h-1.7L51,20.4h0c-0.4,0.4-0.9,0.6-1.4,0.6c-1.1,0-1.7-0.8-1.7-1.6
		c0-1.4,1.3-2,3-2v0c0-0.2-0.2-0.4-0.9-0.4c-0.6,0-1.1,0.2-1.5,0.4L48.1,16c0.3-0.2,1.1-0.5,2.2-0.5c1.8,0,2.4,1,2.4,2.3V19.6z
		 M50.9,18.5c-0.8,0-1.2,0.2-1.2,0.7c0,0.3,0.2,0.5,0.5,0.5c0.3,0,0.6-0.2,0.7-0.5c0-0.1,0-0.2,0-0.3V18.5z"/>
	<path class="st0" d="M53.8,17.5c0-0.7,0-1.3,0-1.8h1.7l0.1,0.7h0c0.2-0.3,0.7-0.8,1.6-0.8c1.2,0,1.9,0.8,1.9,2.3v3.1h-1.9V18
		c0-0.6-0.2-1-0.7-1c-0.4,0-0.5,0.3-0.6,0.5c0,0.1-0.1,0.2-0.1,0.4v3h-1.9V17.5z"/>
	<path class="st0" d="M65.3,13.4v5.9c0,0.6,0,1.3,0,1.6h-1.7l-0.1-0.7h0c-0.3,0.6-1,0.8-1.6,0.8c-1.2,0-2.2-1-2.2-2.7
		c0-1.8,1.1-2.8,2.3-2.8c0.6,0,1,0.2,1.3,0.5h0v-2.7H65.3z M63.4,17.9c0-0.1,0-0.2,0-0.2C63.3,17.3,63,17,62.6,17
		c-0.6,0-0.9,0.6-0.9,1.3c0,0.8,0.4,1.2,0.9,1.2c0.4,0,0.7-0.3,0.7-0.6c0-0.1,0-0.2,0-0.4V17.9z"/>
	<path class="st0" d="M67.4,15.1c-0.6,0-1-0.4-1-0.9c0-0.5,0.4-0.9,1-0.9s1,0.4,1,0.9C68.3,14.7,68,15.1,67.4,15.1L67.4,15.1z
		 M66.4,20.9v-5.2h1.9v5.2H66.4z"/>
	<path class="st0" d="M69.4,17.5c0-0.7,0-1.3,0-1.8H71l0.1,0.7h0c0.2-0.3,0.7-0.8,1.6-0.8c1.2,0,1.9,0.8,1.9,2.3v3.1h-1.9V18
		c0-0.6-0.2-1-0.7-1c-0.4,0-0.5,0.3-0.6,0.5c0,0.1-0.1,0.2-0.1,0.4v3h-1.9V17.5z"/>
	<path class="st0" d="M80.8,20.1c0,0.9-0.2,1.8-0.8,2.3c-0.6,0.5-1.4,0.6-2.2,0.6c-0.7,0-1.5-0.1-1.9-0.4l0.4-1.4
		c0.3,0.2,0.9,0.4,1.5,0.4c0.7,0,1.2-0.4,1.2-1.2v-0.2h0c-0.3,0.4-0.8,0.6-1.3,0.6c-1.3,0-2.2-1-2.2-2.5c0-1.6,1.1-2.7,2.4-2.7
		c0.6,0,1.1,0.2,1.3,0.7h0l0.1-0.6h1.6c0,0.3,0,0.8,0,1.6V20.1z M78.9,17.8c0-0.1,0-0.2,0-0.2c-0.1-0.4-0.3-0.6-0.7-0.6
		c-0.5,0-0.8,0.4-0.8,1.3c0,0.7,0.3,1.2,0.8,1.2c0.4,0,0.6-0.2,0.7-0.5c0-0.1,0-0.3,0-0.4V17.8z"/>
	<path class="st0" d="M85.8,19.2l-0.4,1.7h-2l2.1-7.1H88l2.1,7.1h-2.1l-0.5-1.7H85.8z M87.4,17.8l-0.3-1.3c-0.1-0.4-0.2-1-0.4-1.4h0
		c-0.1,0.4-0.2,1-0.3,1.4l-0.3,1.3H87.4z"/>
	<path class="st0" d="M95.9,20.1c0,0.9-0.2,1.8-0.8,2.3c-0.6,0.5-1.4,0.6-2.2,0.6c-0.7,0-1.5-0.1-1.9-0.4l0.4-1.4
		c0.3,0.2,0.9,0.4,1.5,0.4c0.7,0,1.2-0.4,1.2-1.2v-0.2h0c-0.3,0.4-0.8,0.6-1.3,0.6c-1.3,0-2.2-1-2.2-2.5c0-1.6,1.1-2.7,2.4-2.7
		c0.6,0,1.1,0.2,1.3,0.7h0l0.1-0.6h1.6c0,0.3,0,0.8,0,1.6V20.1z M94,17.8c0-0.1,0-0.2,0-0.2c-0.1-0.4-0.3-0.6-0.7-0.6
		c-0.5,0-0.8,0.4-0.8,1.3c0,0.7,0.3,1.2,0.8,1.2c0.4,0,0.6-0.2,0.7-0.5c0-0.1,0-0.3,0-0.4V17.8z"/>
	<path class="st0" d="M98.5,19c0.1,0.4,0.7,0.6,1.3,0.6c0.5,0,1-0.1,1.4-0.2l0.2,1.3c-0.6,0.2-1.3,0.3-2,0.3c-1.8,0-2.9-1-2.9-2.7
		c0-1.2,0.8-2.8,2.7-2.8c1.7,0,2.4,1.2,2.4,2.7c0,0.3,0,0.6-0.1,0.7H98.5z M100.1,17.7c0-0.3-0.1-0.8-0.7-0.8
		c-0.6,0-0.8,0.5-0.8,0.8H100.1z"/>
	<path class="st0" d="M102.6,17.5c0-0.7,0-1.3,0-1.8h1.7l0.1,0.7h0c0.2-0.3,0.7-0.8,1.6-0.8c1.2,0,1.9,0.8,1.9,2.3v3.1h-1.9V18
		c0-0.6-0.2-1-0.7-1c-0.4,0-0.5,0.3-0.6,0.5c0,0.1-0.1,0.2-0.1,0.4v3h-1.9V17.5z"/>
	<path class="st0" d="M112.8,20.8c-0.3,0.1-0.8,0.2-1.4,0.2c-1.7,0-2.8-1-2.8-2.7c0-1.5,1-2.8,3.1-2.8c0.4,0,0.8,0.1,1.2,0.2
		l-0.3,1.4c-0.2-0.1-0.4-0.1-0.8-0.1c-0.7,0-1.2,0.5-1.2,1.2c0,0.8,0.6,1.3,1.3,1.3c0.3,0,0.6,0,0.8-0.1L112.8,20.8z"/>
	<path class="st0" d="M115.3,15.7l0.6,2.3c0.1,0.3,0.2,0.7,0.2,0.9h0c0.1-0.3,0.1-0.7,0.2-0.9l0.5-2.4h2l-1.1,3.3
		c-0.8,2.2-1.3,3-1.9,3.5c-0.6,0.5-1.3,0.7-1.7,0.8l-0.4-1.6c0.2,0,0.4-0.1,0.7-0.2c0.2-0.1,0.5-0.3,0.6-0.5
		c0.1-0.1,0.1-0.2,0.1-0.2c0-0.1,0-0.1-0.1-0.3l-1.9-4.8H115.3z"/>
</g>
<g>
	<path class="st0" d="M120.2,15.7h-0.6v-0.2h1.5v0.2h-0.6v1.8h-0.3V15.7z"/>
	<path class="st0" d="M123,16.7c0-0.3,0-0.6,0-0.9h0c-0.1,0.2-0.2,0.5-0.3,0.8l-0.4,1h-0.2l-0.3-1c-0.1-0.3-0.2-0.5-0.2-0.8h0
		c0,0.3,0,0.6,0,0.9l-0.1,0.9h-0.2l0.1-2h0.3l0.3,1c0.1,0.2,0.2,0.5,0.2,0.7h0c0.1-0.2,0.1-0.4,0.2-0.7l0.4-1h0.3l0.1,2H123
		L123,16.7z"/>
</g>
</svg>
